<svg xmlns="http://www.w3.org/2000/svg" width="44" height="44" viewBox="0 0 44 44" fill="none"><path d="M4.94008 8.98877H1.39893V12.5299H4.94008V8.98877Z" fill="#9A9A9A"/><path d="M18.2204 8.98877H14.6792V12.5299H18.2204V8.98877Z" fill="#9A9A9A"/><path d="M4.94008 22.2688H1.39893V25.81H4.94008V22.2688Z" fill="#9A9A9A"/><path d="M18.2204 22.2688H14.6792V25.81H18.2204V22.2688Z" fill="#9A9A9A"/><path d="M16.4499 10.7593H3.16992V24.0392H16.4499V10.7593Z" stroke="#9A9A9A" stroke-linecap="round" stroke-linejoin="round"/><path d="M7.02038 30.3188H1V36.3392H7.02038V30.3188Z" stroke="#9A9A9A" stroke-linecap="round" stroke-linejoin="round"/><path d="M13.0404 30.3188H7.02002V36.3392H13.0404V30.3188Z" stroke="#9A9A9A" stroke-linecap="round" stroke-linejoin="round"/><path d="M19.0609 30.3188H13.0405V36.3392H19.0609V30.3188Z" stroke="#9A9A9A" stroke-linecap="round" stroke-linejoin="round"/><path d="M25.0809 30.3188H19.0605V36.3392H25.0809V30.3188Z" stroke="#9A9A9A" stroke-linecap="round" stroke-linejoin="round"/><path d="M31.1014 30.3188H25.0811V36.3392H31.1014V30.3188Z" stroke="#9A9A9A" stroke-linecap="round" stroke-linejoin="round"/><path d="M26.5688 7.66064C27.6252 7.66064 28.4828 8.51822 28.4828 9.57464V13.0257H24.6548V9.57464C24.6548 8.51822 25.5124 7.66064 26.5688 7.66064Z" fill="#161616" stroke="#9A9A9A" stroke-linecap="round" stroke-linejoin="round"/><path d="M30.615 13.0251H22.4868V16.07H30.615V13.0251Z" stroke="#9A9A9A" stroke-linecap="round" stroke-linejoin="round"/><path d="M25.0288 23.4202V16.0706H28.0737V23.4202L26.551 25.8098L25.0288 23.4202Z" stroke="#9A9A9A" stroke-linecap="round" stroke-linejoin="round"/><path d="M7.84131 19.7569L9.80946 15.0417" stroke="#9A9A9A" stroke-linecap="round" stroke-linejoin="round"/><path d="M11.7777 19.7569L9.80957 15.0417" stroke="#9A9A9A" stroke-linecap="round" stroke-linejoin="round"/><path d="M8.49463 18.1929H11.1249" stroke="#9A9A9A" stroke-linecap="round" stroke-linejoin="round"/></svg>