<svg xmlns="http://www.w3.org/2000/svg" width="44" height="44" viewBox="0 0 44 44" fill="none"><path d="M10.5194 29.6154C9.63094 28.0923 7.98094 27.0769 6.1194 27.0769C4.25787 27.0769 2.60786 28.0923 1.7194 29.6154C1.29633 28.8538 1.04248 28.0077 1.04248 27.0769C1.04248 25.9769 1.38094 24.9615 1.97325 24.1154C2.90402 22.8462 4.38479 22 6.1194 22C7.85402 22 9.33479 22.8462 10.2656 24.1154C10.8579 24.9615 11.1963 25.9769 11.1963 27.0769C11.1963 28.0077 10.9425 28.8538 10.5194 29.6154Z" fill="#9A9A9A"/><path d="M28.9654 30.8845C29.8962 30.8845 30.6577 31.6461 30.6577 32.5768C30.6577 33.0422 30.4462 33.4653 30.15 33.7614C29.8539 34.0576 29.4308 34.2691 28.9654 34.2691H21.35C20.4193 34.2691 19.6577 33.5076 19.6577 32.5768C19.6577 32.1114 19.8693 31.6884 20.1654 31.3922C20.4616 31.0961 20.8846 30.8845 21.35 30.8845H28.9654Z" fill="#9A9A9A"/><path d="M33.1961 9.30775V34.6924C33.1961 36.0885 32.0538 37.2308 30.6576 37.2308H19.6576C18.2614 37.2308 17.1191 36.0885 17.1191 34.6924V18.1924V9.30775C17.1191 7.91159 18.2614 6.76929 19.6576 6.76929H30.6576C32.0538 6.76929 33.1961 7.91159 33.1961 9.30775ZM33.1961 9.30775V9.43467" stroke="#9A9A9A"/><path d="M22.1962 23.2693H28.1193C29.5154 23.2693 30.6577 24.4116 30.6577 25.8077V26.6539C30.6577 28.0501 29.5154 29.1924 28.1193 29.1924H22.1962C20.8 29.1924 19.6577 28.0501 19.6577 26.6539V25.8077C19.6577 24.4116 20.7577 23.2693 22.1962 23.2693Z" stroke="#9A9A9A"/><path d="M11.1538 32.7885C12.5923 32.7885 13.7346 31.6462 13.7346 30.2501V20.7308C13.7346 19.3347 14.8769 18.1924 16.273 18.1924H17.1192" stroke="#9A9A9A" stroke-miterlimit="10" stroke-linecap="round" stroke-linejoin="round"/><path d="M10.2231 24.1154C10.8154 23.2692 11.1538 22.2538 11.1538 21.1538C11.1538 18.3615 8.86923 16.0769 6.07692 16.0769C3.28462 16.0769 1 18.3615 1 21.1538C1 22.2538 1.33846 23.2692 1.93077 24.1154" stroke="#9A9A9A" stroke-miterlimit="10" stroke-linecap="round" stroke-linejoin="round"/><path d="M10.5194 29.6154C10.9425 28.8538 11.1963 28.0077 11.1963 27.0769C11.1963 25.9769 10.8579 24.9615 10.2656 24.1154C9.33479 22.8462 7.85402 22 6.1194 22C4.38479 22 2.90402 22.8462 1.97325 24.1154C1.38094 24.9615 1.04248 25.9769 1.04248 27.0769C1.04248 28.0077 1.29633 28.8538 1.7194 29.6154" stroke="#9A9A9A" stroke-miterlimit="10" stroke-linecap="round" stroke-linejoin="round"/><path d="M1.7194 29.6154C2.60786 28.0923 4.25787 27.0769 6.1194 27.0769C7.98094 27.0769 9.63094 28.0923 10.5194 29.6154C10.9425 30.3769 11.1963 31.2231 11.1963 32.1538C11.1963 32.3654 11.1963 32.5769 11.154 32.7884C10.9848 34.0577 10.3925 35.1577 9.46171 35.9615C8.57325 36.7654 7.38863 37.2307 6.1194 37.2307C4.85017 37.2307 3.66556 36.7654 2.7771 35.9615C1.7194 35.0307 1.04248 33.6769 1.04248 32.1538C1.04248 31.2231 1.25402 30.3769 1.7194 29.6154Z" stroke="#9A9A9A" stroke-miterlimit="10" stroke-linecap="round" stroke-linejoin="round"/><path d="M2.73486 35.9615C2.9464 34.3115 4.34256 33 6.03486 33H6.07717H6.11948C7.81179 33 9.25025 34.3115 9.41948 35.9615" stroke="#9A9A9A" stroke-miterlimit="10" stroke-linecap="round" stroke-linejoin="round"/><path d="M6.07676 33.0001C5.14599 33.0001 4.42676 32.2386 4.42676 31.3078C4.42676 30.377 5.1883 29.6155 6.11907 29.6155C7.04983 29.6155 7.81137 30.377 7.81137 31.3078C7.81137 32.2386 7.09214 33.0001 6.16137 33.0001C6.11907 33.0001 6.11907 33.0001 6.07676 33.0001Z" stroke="#9A9A9A" stroke-miterlimit="10" stroke-linecap="round" stroke-linejoin="round"/></svg>