<svg xmlns="http://www.w3.org/2000/svg" width="44" height="44" viewBox="0 0 44 44" fill="none"><path d="M32.6885 21.5769V32.3231" stroke="#9A9A9A" stroke-miterlimit="10" stroke-linecap="round" stroke-linejoin="round"/><path d="M3.75 32.323V15.3153C3.75 14.0884 4.76538 13.073 5.99231 13.073H29.1769" stroke="#9A9A9A" stroke-miterlimit="10" stroke-linecap="round" stroke-linejoin="round"/><path d="M15.1308 32.323C15.1308 33.1692 15.8077 33.5499 16.6538 33.5499H19.7423C20.5885 33.5499 21.2654 33.1692 21.2654 32.323H35.3115V33.8038C35.3115 34.6922 34.5923 35.4115 33.7038 35.4115H2.60769C1.71923 35.4115 1 34.6922 1 33.8038V32.323H15.1308Z" stroke="#9A9A9A" stroke-miterlimit="10" stroke-linecap="round" stroke-linejoin="round"/><path d="M10.604 21.5769H13.1425" stroke="#9A9A9A" stroke-miterlimit="10" stroke-linecap="round" stroke-linejoin="round"/><path d="M7.64258 19.0386L8.91181 20.3078L7.64258 21.577" stroke="#9A9A9A" stroke-miterlimit="10" stroke-linecap="round" stroke-linejoin="round"/><path d="M7.64258 26.7385H10.181" stroke="#9A9A9A" stroke-miterlimit="10" stroke-linecap="round" stroke-linejoin="round"/><path d="M11.873 26.7385H15.6807" stroke="#9A9A9A" stroke-miterlimit="10" stroke-linecap="round" stroke-linejoin="round"/><path d="M7.64258 24.2H12.0849" stroke="#9A9A9A" stroke-miterlimit="10" stroke-linecap="round" stroke-linejoin="round"/><path d="M13.9888 24.2H16.5272" stroke="#9A9A9A" stroke-miterlimit="10" stroke-linecap="round" stroke-linejoin="round"/><path d="M18.2192 24.2H21.6039" stroke="#9A9A9A" stroke-miterlimit="10" stroke-linecap="round" stroke-linejoin="round"/><path d="M37.7657 15.2307L35.2695 16.7961L32.6887 18.4038L30.1503 16.7961L27.6118 15.2307L30.1503 13.623L32.6887 15.2307H32.731L35.2272 13.623L37.7657 15.2307Z" fill="#9A9A9A"/><path d="M35.2695 16.7961L37.7657 18.4038L32.6887 21.5769L27.6118 18.4038L30.1503 16.7961" stroke="#9A9A9A" stroke-miterlimit="10" stroke-linecap="round" stroke-linejoin="round"/><path d="M32.6885 15.2308V15.1885L32.7308 15.2308" stroke="#9A9A9A" stroke-miterlimit="10" stroke-linecap="round" stroke-linejoin="round"/><path d="M30.1503 13.623L27.6118 15.2307L30.1503 16.7961L32.6887 18.4038L35.2695 16.7961L37.7657 15.2307L35.2272 13.623" stroke="#9A9A9A" stroke-miterlimit="10" stroke-linecap="round" stroke-linejoin="round"/><path d="M30.1503 13.623L27.6118 12.0576L32.6887 8.88452L37.7657 12.0576L35.2272 13.623L32.731 15.2307H32.6887L30.1503 13.623Z" stroke="#9A9A9A" stroke-miterlimit="10" stroke-linecap="round" stroke-linejoin="round"/></svg>