<svg xmlns="http://www.w3.org/2000/svg" width="44" height="44" viewBox="0 0 44 44" fill="none"><path d="M27.6583 17.1726L17.9487 22.9645V17.1726H27.6583Z" fill="#9A9A9A"/><path d="M7.71857 13.3226C8.13916 13.3226 8.48011 12.9817 8.48011 12.5611C8.48011 12.1405 8.13916 11.7996 7.71857 11.7996C7.29798 11.7996 6.95703 12.1405 6.95703 12.5611C6.95703 12.9817 7.29798 13.3226 7.71857 13.3226Z" fill="#9A9A9A"/><path d="M5.54816 13.3226C5.96875 13.3226 6.3097 12.9817 6.3097 12.5611C6.3097 12.1405 5.96875 11.7996 5.54816 11.7996C5.12757 11.7996 4.78662 12.1405 4.78662 12.5611C4.78662 12.9817 5.12757 13.3226 5.54816 13.3226Z" fill="#9A9A9A"/><path d="M3.37775 13.3226C3.79834 13.3226 4.13929 12.9817 4.13929 12.5611C4.13929 12.1405 3.79834 11.7996 3.37775 11.7996C2.95716 11.7996 2.61621 12.1405 2.61621 12.5611C2.61621 12.9817 2.95716 13.3226 3.37775 13.3226Z" fill="#9A9A9A"/><path d="M31.4615 14.6554V32.065C31.4615 32.8858 30.7931 33.5543 29.9723 33.5543H2.48923C1.66846 33.5543 1 32.8858 1 32.065V11.935C1 11.1143 1.66846 10.4458 2.48923 10.4458H29.9723C30.7931 10.4458 31.4615 11.1143 31.4615 11.935V14.6554Z" stroke="#9A9A9A" stroke-linecap="round" stroke-linejoin="round"/><path d="M1 14.6555H31.4615" stroke="#9A9A9A" stroke-linecap="round" stroke-linejoin="round"/><path d="M27.6579 17.1726H17.9482V22.9645H27.6579V17.1726Z" stroke="#9A9A9A" stroke-linecap="round" stroke-linejoin="round"/><path d="M15.3209 17.1726H4.80322V30.9945H15.3209V17.1726Z" stroke="#9A9A9A" stroke-linecap="round" stroke-linejoin="round"/><path d="M4.80322 30.9945L10.0621 24.0857L15.3209 17.1726" stroke="#9A9A9A" stroke-linecap="round" stroke-linejoin="round"/><path d="M4.80322 17.1726L10.0621 24.0857L15.3209 30.9945" stroke="#9A9A9A" stroke-linecap="round" stroke-linejoin="round"/><path d="M17.9482 22.9645L27.6579 17.1726" stroke="#9A9A9A" stroke-linecap="round" stroke-linejoin="round"/><path d="M17.9482 26.1631H27.6579" stroke="#9A9A9A" stroke-linecap="round" stroke-linejoin="round"/><path d="M17.9482 29.0315H22.8009" stroke="#9A9A9A" stroke-linecap="round" stroke-linejoin="round"/></svg>